<svg width="860" height="247" viewBox="0 0 860 247" fill="none" xmlns="http://www.w3.org/2000/svg">
<path d="M859.149 42.8303L829.327 74.6567L860.001 129.996H836.617L817.21 94.036C815.707 91.2499 812.008 90.5766 809.619 92.6541L800.147 100.892V129.996H778.466L778.466 30.7773H800.147L800.147 77.9611L833.674 42.8303H859.149Z" fill="#0E3B2A"/>
<path d="M710.286 130.879C705.021 130.879 700.323 130.463 696.194 129.63C692.064 128.748 688.502 127.302 685.508 125.293C682.566 123.284 680.32 120.565 678.772 117.135C677.223 113.657 676.449 109.32 676.449 104.127C676.449 99.178 677.197 95.0377 678.694 91.7059C680.191 88.3741 682.359 85.7283 685.199 83.7684C688.089 81.7595 691.625 80.3141 695.807 79.4322C699.988 78.5502 704.737 78.1092 710.054 78.1092H735.509C737.701 78.1092 739.477 76.3324 739.477 74.1405C739.477 69.7308 738.651 66.203 737 63.5571C735.399 60.9113 733.102 59.0004 730.108 57.8245C727.114 56.5996 723.527 55.9871 719.345 55.9871C715.939 55.9871 712.815 56.5261 709.976 57.604C707.137 58.6819 705.072 60.013 702.931 62.6863C700.791 65.3596 698.696 70.4515 698.696 70.4515L677.456 67.1584C678.436 62.5037 680.191 58.5839 682.721 55.3991C685.302 52.1653 688.451 49.593 692.167 47.6821C695.884 45.7222 700.039 44.3013 704.634 43.4194C709.228 42.4884 714.106 42.0229 719.268 42.0229C728.353 42.0229 736.019 43.1254 742.265 45.3302C748.511 47.5351 753.234 51.0629 756.435 55.9136C759.687 60.7153 761.313 67.1339 761.313 75.1694V129.997H743.194L741.336 119.561C740.561 120.884 739.297 122.207 737.542 123.529C735.787 124.803 733.567 126.004 730.883 127.131C728.25 128.258 725.204 129.164 721.746 129.85C718.287 130.536 714.467 130.879 710.286 130.879ZM715.164 117.503C719.191 117.503 722.83 117.062 726.082 116.18C729.334 115.249 732.07 114.049 734.29 112.579C738.014 110.169 739.168 105.603 739.168 101.167V89.5011H715.164C712.79 89.5011 710.57 89.697 708.505 90.089C706.492 90.432 704.737 91.0935 703.24 92.0734C701.743 93.0533 700.581 94.4742 699.756 96.3361C698.93 98.149 698.517 100.501 698.517 103.392C698.517 106.283 698.93 108.659 699.756 110.521C700.581 112.334 701.743 113.755 703.24 114.783C704.789 115.763 706.569 116.474 708.583 116.915C710.596 117.307 712.79 117.503 715.164 117.503Z" fill="#0E3B2A"/>
<path d="M533.247 42.9063V129.999H555.005V76.2982C555.477 70.4555 557.025 65.866 559.651 62.5296C562.903 58.4629 567.11 56.4295 572.272 56.4295C577.279 56.4295 580.893 58.2669 583.113 61.9417C585.332 65.6164 586.442 71.5451 586.442 79.7276V129.999H608.123V78.1107C608.123 77.9013 608.122 77.6926 608.12 77.4846C608.47 71.0736 610.045 66.0886 612.846 62.5296C616.098 58.4629 620.279 56.4295 625.39 56.4295C630.448 56.4295 634.036 58.2669 636.152 61.9417C638.269 65.6164 639.327 71.5451 639.327 79.7276V129.999H661.085V78.1107C661.085 68.2133 659.175 59.7613 655.355 52.7547C651.535 45.6992 643.973 42.1714 632.668 42.1714C622.757 42.1714 614.24 45.6992 607.116 52.7547C605.979 53.8805 604.933 55.0206 603.978 56.1751C603.449 54.9724 602.869 53.8078 602.238 52.6812C598.366 45.6747 590.778 42.1714 579.473 42.1714C571.424 42.1714 564.131 44.6266 557.86 49.2764C555.792 50.8091 552.69 50.088 551.825 47.6642L550.127 42.9063H533.247Z" fill="#0E3B2A"/>
<path d="M493.743 65.2631C494.672 61.7353 495.859 58.0115 497.305 54.0918C498.75 50.172 500.299 46.2032 501.951 42.1855C503.706 38.1677 505.409 34.395 507.061 30.8672H521.153C520.224 34.689 519.243 38.7557 518.211 43.0674C517.282 47.2812 516.404 51.4459 515.578 55.5617C514.752 59.6774 514.081 63.4502 513.565 66.88H494.827L493.743 65.2631Z" fill="#0E3B2A"/>
<path d="M441.214 130.658C425.676 130.658 414.449 126.909 407.532 119.413C400.615 111.867 397.156 100.77 397.156 86.1195C397.156 71.4694 400.615 60.4451 407.532 53.0465C414.449 45.648 425.676 41.9487 441.214 41.9487C456.752 41.9487 467.979 45.648 474.896 53.0465C481.814 60.4451 485.272 71.4694 485.272 86.1195C485.272 100.77 481.814 111.867 474.896 119.413C467.979 126.909 456.752 130.658 441.214 130.658ZM441.214 116.547C447.718 116.547 453.061 114.513 457.242 110.447C461.424 106.331 463.514 98.2708 463.514 86.2665C463.514 74.2132 461.424 66.1532 457.242 62.0865C453.061 58.0197 447.718 55.9864 441.214 55.9864C434.71 55.9864 429.367 58.0197 425.186 62.0865C421.005 66.1532 418.914 74.2132 418.914 86.2665C418.914 98.2708 421.005 106.331 425.186 110.447C429.367 114.513 434.71 116.547 441.214 116.547Z" fill="#0E3B2A"/>
<path d="M307.173 130.031V30.7773H328.365V74.8901L364.233 30.7773L391.66 30.7773L351.148 80.4777L391.884 130.031H364.458L337.125 96.737C334.181 93.1508 328.365 95.2326 328.365 99.8724V130.031H307.173Z" fill="#0E3B2A"/>
<path d="M692.707 214.973V172.152H699.844V214.973H692.707ZM696.276 163.061C694.86 163.061 693.67 162.608 692.707 161.701C691.801 160.738 691.348 159.549 691.348 158.133C691.348 156.717 691.801 155.584 692.707 154.734C693.67 153.828 694.86 153.375 696.276 153.375C697.635 153.375 698.796 153.828 699.759 154.734C700.722 155.584 701.204 156.717 701.204 158.133C701.204 159.549 700.722 160.738 699.759 161.701C698.796 162.608 697.635 163.061 696.276 163.061Z" fill="#0E3B2A"/>
<path d="M665.523 215.992C661.954 215.992 658.839 215.398 656.177 214.208C653.571 213.019 651.475 211.376 649.889 209.28C648.36 207.128 647.426 204.607 647.086 201.719H654.393C654.676 203.191 655.27 204.551 656.177 205.797C657.083 207.043 658.301 208.063 659.83 208.856C661.416 209.592 663.342 209.96 665.608 209.96C667.59 209.96 669.233 209.677 670.536 209.11C671.838 208.487 672.801 207.666 673.424 206.647C674.104 205.627 674.444 204.522 674.444 203.333C674.444 201.577 674.019 200.246 673.169 199.34C672.376 198.433 671.187 197.725 669.601 197.216C668.015 196.649 666.089 196.168 663.823 195.771C661.954 195.431 660.113 194.978 658.301 194.412C656.488 193.845 654.874 193.109 653.458 192.203C652.042 191.24 650.909 190.079 650.059 188.719C649.266 187.36 648.87 185.689 648.87 183.706C648.87 181.271 649.493 179.118 650.739 177.249C651.985 175.323 653.769 173.822 656.092 172.746C658.471 171.67 661.218 171.132 664.333 171.132C668.921 171.132 672.631 172.236 675.463 174.445C678.296 176.654 679.966 179.855 680.476 184.046H673.424C673.141 181.894 672.206 180.223 670.621 179.033C669.091 177.787 666.967 177.164 664.248 177.164C661.586 177.164 659.547 177.702 658.131 178.779C656.771 179.855 656.092 181.271 656.092 183.027C656.092 184.16 656.46 185.179 657.196 186.085C657.989 186.935 659.122 187.671 660.595 188.294C662.124 188.917 663.993 189.427 666.202 189.824C669.035 190.334 671.612 191.013 673.934 191.863C676.256 192.713 678.126 193.987 679.542 195.686C681.014 197.329 681.751 199.68 681.751 202.738C681.751 205.4 681.071 207.723 679.712 209.705C678.409 211.688 676.54 213.245 674.104 214.378C671.668 215.454 668.808 215.992 665.523 215.992Z" fill="#0E3B2A"/>
<path d="M617.098 215.992C613.643 215.992 610.754 215.398 608.431 214.208C606.109 212.962 604.382 211.348 603.249 209.365C602.116 207.326 601.549 205.117 601.549 202.738C601.549 199.849 602.286 197.414 603.758 195.431C605.288 193.392 607.412 191.863 610.131 190.843C612.906 189.767 616.163 189.229 619.902 189.229H631.202C631.202 186.567 630.777 184.358 629.927 182.602C629.134 180.789 627.945 179.43 626.359 178.524C624.829 177.617 622.904 177.164 620.581 177.164C617.862 177.164 615.512 177.844 613.529 179.203C611.547 180.563 610.329 182.574 609.876 185.236H602.569C602.909 182.177 603.928 179.628 605.628 177.589C607.384 175.493 609.593 173.907 612.255 172.831C614.917 171.698 617.692 171.132 620.581 171.132C624.546 171.132 627.831 171.868 630.437 173.341C633.099 174.757 635.082 176.768 636.384 179.373C637.687 181.922 638.339 184.953 638.339 188.464V214.973H631.966L631.542 207.411C630.975 208.601 630.239 209.734 629.332 210.81C628.483 211.829 627.463 212.736 626.274 213.529C625.084 214.265 623.725 214.86 622.196 215.313C620.723 215.766 619.024 215.992 617.098 215.992ZM618.202 209.96C620.185 209.96 621.969 209.564 623.555 208.771C625.198 207.921 626.585 206.788 627.718 205.372C628.851 203.899 629.701 202.285 630.267 200.529C630.89 198.773 631.202 196.932 631.202 195.007V194.752H620.496C617.721 194.752 615.483 195.091 613.784 195.771C612.085 196.394 610.867 197.301 610.131 198.49C609.394 199.623 609.026 200.926 609.026 202.398C609.026 203.928 609.366 205.259 610.046 206.392C610.782 207.524 611.83 208.402 613.189 209.025C614.605 209.649 616.276 209.96 618.202 209.96Z" fill="#0E3B2A"/>
<path d="M554.294 214.971V153.798H561.431V179.372C562.847 176.823 564.829 174.812 567.378 173.339C569.984 171.867 572.816 171.13 575.875 171.13C579.16 171.13 582.02 171.81 584.456 173.169C586.892 174.472 588.761 176.483 590.063 179.202C591.366 181.921 592.018 185.348 592.018 189.482V214.971H584.966V190.247C584.966 185.942 584.059 182.714 582.247 180.561C580.434 178.352 577.8 177.248 574.345 177.248C571.91 177.248 569.701 177.842 567.718 179.032C565.792 180.221 564.263 181.921 563.13 184.13C561.997 186.339 561.431 189.058 561.431 192.286V214.971H554.294Z" fill="#0E3B2A"/>
<path d="M534.562 214.973V172.152H541.699V214.973H534.562ZM538.131 163.061C536.715 163.061 535.525 162.608 534.562 161.701C533.656 160.738 533.203 159.549 533.203 158.133C533.203 156.717 533.656 155.584 534.562 154.734C535.525 153.828 536.715 153.375 538.131 153.375C539.49 153.375 540.651 153.828 541.614 154.734C542.577 155.584 543.059 156.717 543.059 158.133C543.059 159.549 542.577 160.738 541.614 161.701C540.651 162.608 539.49 163.061 538.131 163.061Z" fill="#0E3B2A"/>
<path d="M491.344 233.662L501.794 210.212H499.331L482.508 172.148H490.239L504.173 204.859L518.787 172.148H526.179L498.821 233.662H491.344Z" fill="#0E3B2A"/>
<path d="M458.826 215.992C454.861 215.992 451.293 215.086 448.121 213.274C444.949 211.404 442.456 208.799 440.644 205.457C438.831 202.058 437.925 198.122 437.925 193.647C437.925 189.059 438.831 185.094 440.644 181.752C442.513 178.354 445.034 175.748 448.206 173.936C451.434 172.066 455.031 171.132 458.996 171.132C463.074 171.132 466.671 172.066 469.786 173.936C472.958 175.748 475.45 178.354 477.263 181.752C479.132 185.094 480.067 189.031 480.067 193.562C480.067 198.094 479.132 202.058 477.263 205.457C475.394 208.799 472.873 211.404 469.701 213.274C466.529 215.086 462.904 215.992 458.826 215.992ZM458.911 209.875C461.347 209.875 463.612 209.28 465.708 208.091C467.804 206.845 469.503 205.004 470.806 202.568C472.109 200.133 472.76 197.131 472.76 193.562C472.76 189.937 472.109 186.935 470.806 184.556C469.56 182.12 467.889 180.308 465.793 179.118C463.754 177.872 461.488 177.249 458.996 177.249C456.617 177.249 454.351 177.872 452.199 179.118C450.103 180.308 448.404 182.12 447.101 184.556C445.855 186.935 445.232 189.937 445.232 193.562C445.232 197.131 445.855 200.133 447.101 202.568C448.404 205.004 450.075 206.845 452.114 208.091C454.21 209.28 456.475 209.875 458.911 209.875Z" fill="#0E3B2A"/>
<path d="M397.155 214.972V155.498H404.292V209.28H431.99V214.972H397.155Z" fill="#0E3B2A"/>
<path fill-rule="evenodd" clip-rule="evenodd" d="M79.9465 123.607C79.9465 164.414 103.56 217.496 141.857 245.133C52.2035 256.886 9.83104e-06 185.552 9.83104e-06 123.607C9.83104e-06 113.491 1.18194 104.288 2.98313 96.1348C9.34389 67.3438 25.3103 32.233 0.14354 16.8703C0.14354 16.8703 8.74519 0.210449 38.9766 0.210449C69.208 0.210449 92.6383 29.3739 92.6383 53.3029C92.6383 77.2319 79.9465 82.7995 79.9465 123.607Z" fill="#0E3B2A"/>
<path d="M221.486 153.515C220.815 138.713 210.72 119.547 174.823 124.206C156.116 127.065 134.872 140.168 126.291 166.174C118.42 188.728 125.479 213.224 143.127 230.272C148.563 205.403 170.26 192.25 193.142 186.116C216.024 179.982 221.486 164.762 221.486 153.515ZM182.884 136.142C184.668 136.142 186.115 137.588 186.115 139.373V144.359C186.115 148.897 189.794 152.575 194.331 152.575H199.363C201.133 152.575 202.568 154.01 202.568 155.781C202.568 157.551 201.133 158.986 199.363 158.986H194.341C189.798 158.986 186.115 162.669 186.115 167.212V172.279C186.115 174.063 184.668 175.509 182.884 175.509C181.1 175.509 179.654 174.063 179.654 172.279V167.212C179.654 162.669 175.971 158.986 171.428 158.986H166.406C164.636 158.986 163.201 157.551 163.201 155.781C163.201 154.01 164.636 152.575 166.406 152.575H171.438C175.975 152.575 179.654 148.897 179.654 144.359V139.373C179.654 137.589 181.1 136.142 182.884 136.142Z" fill="#0E3B2A"/>
<path fill-rule="evenodd" clip-rule="evenodd" d="M246.476 36.8848C246.476 23.4495 242.581 10.9243 235.857 0.376404C232.547 0.126847 229.202 2.94579e-10 225.827 2.80762e-10C157.388 0 126.997 35.5789 116.867 49.521C106.737 63.4631 90.889 89.5119 92.3974 130.307C92.9941 146.445 99.4307 169.953 110.973 188.448C109.525 142.421 142.845 116.88 187.721 104.276C211.141 97.6982 224.944 88.8622 233.885 76.3184C241.813 65.1953 246.476 51.5847 246.476 36.8848Z" fill="#0E3B2A"/>
<path d="M333.028 212.988V153.375H343.18V212.988H333.028ZM307.173 187.967V178.259H369.035V187.967H307.173Z" fill="#0E3B2A"/>
</svg>
