<svg width="505" height="145" viewBox="0 0 505 145" fill="none" xmlns="http://www.w3.org/2000/svg">
<path d="M503.549 25.0847L486.082 43.7252L504.047 76.1371H490.352L478.985 55.0756C478.105 53.4438 475.938 53.0495 474.539 54.2663L468.991 59.091V76.1371H456.293L456.293 18.0254H468.991L468.991 45.6607L488.628 25.0847H503.549Z" fill="#0b0b47"/>
<path d="M416.361 76.6538C413.277 76.6538 410.526 76.4099 408.107 75.922C405.688 75.4055 403.602 74.5589 401.848 73.3823C400.125 72.2057 398.81 70.613 397.903 68.6042C396.996 66.5667 396.542 64.027 396.542 60.9851C396.542 58.0867 396.981 55.6618 397.858 53.7103C398.734 51.7589 400.004 50.2093 401.667 49.0614C403.36 47.8848 405.431 47.0382 407.88 46.5217C410.329 46.0051 413.111 45.7469 416.225 45.7469H431.133C432.417 45.7469 433.458 44.7061 433.458 43.4224C433.458 40.8396 432.974 38.7734 432.007 37.2238C431.069 35.6741 429.724 34.5549 427.97 33.8662C426.217 33.1488 424.116 32.79 421.667 32.79C419.671 32.79 417.842 33.1057 416.179 33.7371C414.516 34.3684 413.307 35.148 412.053 36.7137C410.799 38.2794 409.572 41.2618 409.572 41.2618L397.132 39.333C397.706 36.6068 398.734 34.311 400.216 32.4457C401.728 30.5517 403.572 29.0451 405.749 27.9259C407.925 26.778 410.359 25.9457 413.05 25.4292C415.741 24.884 418.598 24.6113 421.621 24.6113C426.942 24.6113 431.432 25.257 435.09 26.5484C438.749 27.8398 441.515 29.906 443.39 32.747C445.294 35.5593 446.247 39.3187 446.247 44.025V76.1372H435.635L434.546 70.0247C434.093 70.7996 433.352 71.5744 432.324 72.3492C431.296 73.0953 429.996 73.7984 428.424 74.4585C426.882 75.1185 425.098 75.6494 423.073 76.0511C421.047 76.4529 418.81 76.6538 416.361 76.6538ZM419.218 68.8194C421.576 68.8194 423.707 68.5612 425.612 68.0446C427.517 67.4994 429.119 66.7963 430.419 65.9354C432.601 64.5238 433.276 61.8497 433.276 59.2516V52.419H419.218C417.827 52.419 416.527 52.5338 415.318 52.7633C414.138 52.9642 413.111 53.3516 412.234 53.9256C411.357 54.4995 410.677 55.3317 410.193 56.4222C409.709 57.484 409.467 58.8615 409.467 60.5546C409.467 62.2478 409.709 63.6396 410.193 64.7301C410.677 65.7919 411.357 66.6241 412.234 67.2267C413.141 67.8007 414.184 68.2168 415.363 68.4751C416.542 68.7047 417.827 68.8194 419.218 68.8194Z" fill="#0b0b47"/>
<path d="M312.67 25.1297V76.139H325.414V44.6871C325.69 41.2651 326.597 38.577 328.135 36.6229C330.039 34.2411 332.503 33.0501 335.527 33.0501C338.46 33.0501 340.576 34.1263 341.876 36.2786C343.176 38.4309 343.826 41.9032 343.826 46.6957V76.139H356.524V45.7486C356.524 45.626 356.524 45.5038 356.523 45.3819C356.727 41.6271 357.65 38.7074 359.291 36.6229C361.195 34.2411 363.644 33.0501 366.637 33.0501C369.6 33.0501 371.701 34.1263 372.941 36.2786C374.181 38.4309 374.8 41.9032 374.8 46.6957V76.139H387.544V45.7486C387.544 39.9518 386.425 35.0015 384.188 30.8978C381.951 26.7654 377.521 24.6992 370.9 24.6992C365.095 24.6992 360.107 26.7654 355.935 30.8978C355.269 31.5572 354.656 32.2249 354.097 32.9011C353.787 32.1967 353.447 31.5146 353.078 30.8548C350.81 26.7511 346.366 24.6992 339.744 24.6992C335.03 24.6992 330.759 26.1372 327.086 28.8606C325.875 29.7583 324.058 29.3359 323.551 27.9163L322.557 25.1297H312.67Z" fill="#0b0b47"/>
<path d="M289.533 38.2236C290.077 36.1574 290.772 33.9764 291.619 31.6806C292.465 29.3848 293.372 27.0604 294.34 24.7072C295.368 22.354 296.366 20.1443 297.333 18.0781H305.587C305.043 20.3165 304.468 22.6984 303.863 25.2237C303.319 27.6917 302.805 30.131 302.322 32.5415C301.838 34.9521 301.445 37.1618 301.142 39.1706H290.168L289.533 38.2236Z" fill="#0b0b47"/>
<path d="M258.767 76.5247C249.666 76.5247 243.09 74.3294 239.039 69.9387C234.988 65.5193 232.962 59.0194 232.962 50.4389C232.962 41.8584 234.988 35.4016 239.039 31.0683C243.09 26.735 249.666 24.5684 258.767 24.5684C267.867 24.5684 274.443 26.735 278.494 31.0683C282.545 35.4016 284.571 41.8584 284.571 50.4389C284.571 59.0194 282.545 65.5193 278.494 69.9387C274.443 74.3294 267.867 76.5247 258.767 76.5247ZM258.767 68.2599C262.576 68.2599 265.705 67.069 268.154 64.6871C270.603 62.2765 271.828 57.5558 271.828 50.525C271.828 43.4655 270.603 38.7448 268.154 36.3629C265.705 33.9811 262.576 32.7901 258.767 32.7901C254.957 32.7901 251.828 33.9811 249.379 36.3629C246.93 38.7448 245.706 43.4655 245.706 50.525C245.706 57.5558 246.93 62.2765 249.379 64.6871C251.828 67.069 254.957 68.2599 258.767 68.2599Z" fill="#0b0b47"/>
<path d="M180.351 76.1577V18.0254H192.763V43.862L213.771 18.0254L229.834 18.0254L206.107 47.1346L229.966 76.1577H213.902L197.894 56.6575C196.169 54.5571 192.763 55.7764 192.763 58.494V76.1577H180.351Z" fill="#0b0b47"/>
<path d="M353.413 126.295V101.214H357.593V126.295H353.413ZM355.503 95.8897C354.674 95.8897 353.977 95.6243 353.413 95.0935C352.882 94.5295 352.617 93.8329 352.617 93.0035C352.617 92.1741 352.882 91.5106 353.413 91.013C353.977 90.4822 354.674 90.2168 355.503 90.2168C356.299 90.2168 356.979 90.4822 357.543 91.013C358.107 91.5106 358.389 92.1741 358.389 93.0035C388.389 93.8329 358.107 94.5295 357.543 95.0935C356.979 95.6243 356.299 95.8897 355.503 95.8897Z" fill="#0b0b47"/>
<path d="M337.491 126.892C335.401 126.892 333.576 126.543 332.017 125.847C330.491 125.15 329.264 124.188 328.335 122.961C327.439 121.7 326.892 120.224 326.693 118.532H330.972C331.138 119.394 331.486 120.19 332.017 120.92C332.548 121.65 333.261 122.247 334.157 122.712C335.086 123.143 336.214 123.359 337.541 123.359C338.702 123.359 339.664 123.193 340.427 122.861C341.19 122.496 341.754 122.015 342.119 121.418C342.517 120.821 342.716 120.174 342.716 119.477C342.716 118.449 342.467 117.669 341.97 117.138C341.505 116.608 340.809 116.193 339.88 115.894C338.951 115.563 337.823 115.281 336.496 115.048C335.401 114.849 334.323 114.584 333.261 114.252C332.2 113.92 331.254 113.489 330.425 112.958C329.595 112.394 328.932 111.714 328.434 110.918C327.97 110.122 327.738 109.143 327.738 107.982C327.738 106.556 328.103 105.295 328.832 104.2C329.562 103.072 330.607 102.193 331.967 101.563C333.361 100.932 334.97 100.617 336.794 100.617C339.482 100.617 341.655 101.264 343.313 102.558C344.972 103.852 345.951 105.726 346.249 108.181H342.119C341.953 106.92 341.406 105.942 340.477 105.245C339.581 104.515 338.337 104.15 336.745 104.15C335.185 104.15 333.991 104.465 333.162 105.096C332.366 105.726 331.967 106.556 331.967 107.584C331.967 108.247 332.183 108.845 332.614 109.375C333.079 109.873 333.742 110.304 334.605 110.669C335.501 111.034 336.595 111.333 337.889 111.565C339.548 111.864 341.057 112.262 342.418 112.759C343.778 113.257 344.873 114.003 345.702 114.999C346.564 115.961 346.996 117.337 346.996 119.129C346.996 120.688 346.598 122.048 345.801 123.209C345.038 124.37 343.944 125.283 342.517 125.946C341.091 126.577 339.415 126.892 337.491 126.892Z" fill="#0b0b47"/>
<path d="M309.129 126.892C307.105 126.892 305.413 126.543 304.053 125.847C302.693 125.117 301.681 124.171 301.018 123.01C300.354 121.816 300.022 120.522 300.022 119.129C300.022 117.437 300.454 116.01 301.316 114.849C302.212 113.655 303.456 112.759 305.048 112.162C306.674 111.532 308.582 111.217 310.771 111.217H317.39C317.39 109.657 317.141 108.364 316.643 107.335C316.179 106.274 315.482 105.477 314.553 104.947C313.657 104.416 312.529 104.15 311.169 104.15C309.577 104.15 308.2 104.548 307.039 105.345C305.878 106.141 305.165 107.319 304.899 108.878H300.62C300.819 107.086 301.416 105.593 302.411 104.399C303.439 103.172 304.733 102.243 306.293 101.612C307.852 100.949 309.477 100.617 311.169 100.617C313.492 100.617 315.416 101.048 316.942 101.911C318.501 102.74 319.662 103.918 320.425 105.444C321.188 106.937 321.570 108.712 321.570 110.769V126.295H317.837L317.589 121.866C317.257 122.562 316.826 123.226 316.295 123.856C315.797 124.453 315.2 124.984 314.503 125.449C313.807 125.88 313.010 126.228 312.115 126.494C311.252 126.759 310.257 126.892 309.129 126.892ZM309.776 123.359C310.937 123.359 311.982 123.126 312.911 122.662C313.873 122.164 314.686 121.501 315.349 120.671C316.013 119.809 316.510 118.863 316.842 117.835C317.207 116.807 317.390 115.728 317.390 114.600V114.451H311.120C309.494 114.451 308.184 114.650 307.188 115.048C306.193 115.413 305.480 115.944 305.048 116.641C304.617 117.304 304.402 118.067 304.402 118.930C304.402 119.826 304.601 120.605 304.999 121.269C305.430 121.932 306.044 122.446 306.840 122.811C307.669 123.176 308.648 123.359 309.776 123.359Z" fill="#0b0b47"/>
<path d="M272.345 126.294V90.4648H276.525V105.443C277.354 103.950 278.516 102.773 280.008 101.910C281.534 101.048 283.193 100.616 284.985 100.616C286.909 100.616 288.584 101.014 290.011 101.811C291.437 102.574 292.532 103.751 293.295 105.344C294.058 106.936 294.440 108.943 294.440 111.365V126.294H290.309V111.813C290.309 109.292 289.778 107.401 288.717 106.140C287.655 104.846 286.113 104.199 284.089 104.199C282.662 104.199 281.369 104.548 280.207 105.244C279.079 105.941 278.184 106.936 277.520 108.230C276.857 109.524 276.525 111.116 276.525 113.007V126.294H272.345Z" fill="#0b0b47"/>
<path d="M260.788 126.295V101.214H264.968V126.295H260.788ZM262.878 95.8897C262.049 95.8897 261.352 95.6243 260.788 95.0935C260.258 94.5295 259.992 93.8329 259.992 93.0035C259.992 92.1741 260.258 91.5106 260.788 91.013C261.352 90.4822 262.049 90.2168 262.878 90.2168C263.675 90.2168 264.355 90.4822 264.919 91.013C265.483 91.5106 265.765 92.1741 265.765 93.0035C265.765 93.8329 265.483 94.5295 264.919 95.0935C264.355 95.6243 263.675 95.8897 262.878 95.8897Z" fill="#0b0b47"/>
<path d="M235.476 137.241L241.597 123.506H240.154L230.301 101.213H234.829L242.990 120.371L251.549 101.213H255.878L239.855 137.241H235.476Z" fill="#0b0b47"/>
<path d="M216.430 126.892C214.108 126.892 212.018 126.361 210.160 125.299C208.302 124.205 206.842 122.679 205.781 120.721C204.719 118.731 204.188 116.425 204.188 113.804C204.188 111.117 204.719 108.795 205.781 106.838C206.876 104.847 208.352 103.321 210.210 102.259C212.101 101.165 214.207 100.617 216.530 100.617C218.918 100.617 221.025 101.165 222.849 102.259C224.707 103.321 226.167 104.847 227.229 106.838C228.323 108.795 228.871 111.100 228.871 113.754C228.871 116.408 228.323 118.731 227.229 120.721C226.134 122.679 224.657 124.205 222.800 125.299C220.942 126.361 218.819 126.892 216.430 126.892ZM216.480 123.309C217.906 123.309 219.233 122.961 220.461 122.264C221.688 121.534 222.684 120.456 223.447 119.029C224.210 117.603 224.591 115.845 224.591 113.754C224.591 111.631 224.210 109.873 223.447 108.480C222.717 107.053 221.738 105.992 220.511 105.295C219.316 104.565 217.989 104.200 216.530 104.200C215.136 104.200 213.809 104.565 212.549 105.295C211.321 105.992 210.326 107.053 209.563 108.480C208.833 109.873 208.468 111.631 208.468 113.754C208.468 115.845 208.833 117.603 209.563 119.029C210.326 120.456 211.305 121.534 212.499 122.264C213.726 122.961 215.053 123.309 216.480 123.309Z" fill="#0b0b47"/>
<path d="M180.310 126.295V91.4609H184.490V122.961H200.712V126.295H180.310Z" fill="#0b0b47"/>
<path fill-rule="evenodd" clip-rule="evenodd" d="M46.8241 72.3956C46.8241 96.2963 60.6543 127.386 83.0845 143.573C30.5752 150.457 -0.0000645835 108.677 -0.0000645835 72.3956C-0.0000645835 66.4709 0.692186 61.0804 1.74713 56.3053C5.47259 39.4427 14.824 18.8785 0.0840001 9.88063C0.0840001 9.88063 5.12193 0.123047 22.8283 0.123047C40.5347 0.123047 54.2576 17.2039 54.2576 31.219C54.2576 45.2341 46.8241 48.4949 46.8241 72.3956Z" fill="#0b0b47"/>
<path fill-rule="evenodd" clip-rule="evenodd" d="M129.723 89.913C129.723 96.5005 126.524 105.415 113.122 109.008C99.7204 112.600 87.0124 120.304 83.8287 134.869C73.4923 124.884 69.3577 110.537 73.9677 97.3274C78.9936 82.0962 91.4364 74.4218 102.393 72.7472C123.417 70.0185 129.330 81.2438 129.723 89.913Z" fill="#0b0b47"/>
<path fill-rule="evenodd" clip-rule="evenodd" d="M144.359 21.6032C144.359 13.7343 142.078 6.39827 138.140 0.220458C136.201 0.0742934 134.242 1.72533e-10 132.265 1.64441e-10C92.1806 0 74.3812 20.8383 68.4481 29.0041C62.515 37.1699 53.2328 52.4266 54.1163 76.3200C54.4658 85.7720 58.2357 99.5402 64.9957 110.373C64.1481 83.4153 83.6634 68.4557 109.947 61.0738C123.664 57.2212 131.748 52.0461 136.985 44.6992C141.628 38.1845 144.359 30.2129 144.359 21.6032Z" fill="#0b0b47"/>
</svg>
