<svg width="857" height="247" viewBox="0 0 857 247" fill="none" xmlns="http://www.w3.org/2000/svg">
<path d="M855.456 43.1855L825.783 74.854L856.304 129.919H833.036L813.726 94.1372C812.23 91.3649 808.549 90.6949 806.172 92.7621L796.747 100.959V129.919H775.174L775.174 31.1924H796.747L796.747 78.1421L830.108 43.1855H855.456Z" fill="#0E3B2A"/>
<path d="M707.332 130.795C702.093 130.795 697.419 130.381 693.309 129.552C689.2 128.674 685.656 127.236 682.677 125.237C679.749 123.238 677.515 120.532 675.974 117.12C674.433 113.658 673.663 109.343 673.663 104.175C673.663 99.2513 674.407 95.1316 675.897 91.8163C677.386 88.501 679.544 85.8683 682.369 83.9182C685.245 81.9193 688.764 80.481 692.924 79.6035C697.085 78.7259 701.81 78.2871 707.101 78.2871H732.429C734.61 78.2871 736.378 76.5191 736.378 74.338C736.378 69.9502 735.556 66.4399 733.913 63.8072C732.32 61.1745 730.035 59.2731 727.056 58.103C724.077 56.8842 720.507 56.2747 716.346 56.2747C712.956 56.2747 709.849 56.811 707.024 57.8836C704.199 58.9562 702.143 60.2807 700.013 62.9407C697.884 65.6007 695.799 70.6674 695.799 70.6674L674.664 67.3906C675.64 62.759 677.386 58.8587 679.903 55.6897C682.472 52.4719 685.605 49.9124 689.303 48.011C693.001 46.0608 697.136 44.6469 701.707 43.7694C706.279 42.843 711.133 42.3799 716.269 42.3799C725.309 42.3799 732.937 43.4768 739.152 45.6708C745.367 47.8647 750.067 51.375 753.251 56.2016C756.487 60.9795 758.105 67.3662 758.105 75.3619V129.917H740.076L738.227 119.533C737.457 120.849 736.199 122.166 734.452 123.482C732.706 124.75 730.497 125.944 727.826 127.065C725.207 128.187 722.176 129.089 718.735 129.771C715.293 130.454 711.492 130.795 707.332 130.795ZM712.186 117.485C716.192 117.485 719.813 117.046 723.049 116.169C726.285 115.243 729.008 114.048 731.216 112.585C734.922 110.187 736.07 105.644 736.07 101.23V89.6224H712.186C709.823 89.6224 707.614 89.8174 705.56 90.2074C703.557 90.5487 701.81 91.2069 700.321 92.182C698.831 93.157 697.675 94.5709 696.854 96.4236C696.032 98.2274 695.621 100.568 695.621 103.444C695.621 106.321 696.032 108.685 696.854 110.538C697.675 112.342 698.831 113.756 700.321 114.779C701.862 115.754 703.634 116.461 705.637 116.9C707.64 117.29 709.823 117.485 712.186 117.485Z" fill="#0E3B2A"/>
<path d="M531.172 43.2587V129.919H552.822V76.4848C553.291 70.6711 554.832 66.1044 557.445 62.7846C560.681 58.738 564.867 56.7147 570.003 56.7147C574.986 56.7147 578.581 58.543 580.79 62.1995C582.998 65.8561 584.103 71.7553 584.103 79.8972V129.919H605.676V78.2883C605.676 78.08 605.675 77.8723 605.673 77.6653C606.021 71.2862 607.588 66.3259 610.375 62.7846C613.611 58.738 617.772 56.7147 622.857 56.7147C627.891 56.7147 631.46 58.543 633.566 62.1995C635.672 65.8561 636.725 71.7553 636.725 79.8972V129.919H658.375V78.2883C658.375 68.44 656.475 60.03 652.674 53.0582C648.873 46.0376 641.348 42.5273 630.099 42.5273C620.237 42.5273 611.762 46.0376 604.674 53.0582C603.543 54.1784 602.502 55.3128 601.552 56.4615C601.025 55.2649 600.448 54.1061 599.82 52.985C595.968 46.0132 588.417 42.5273 577.169 42.5273C569.159 42.5273 561.903 44.9703 555.662 49.5971C553.605 51.1222 550.518 50.4047 549.657 47.9929L547.968 43.2587H531.172Z" fill="#0E3B2A"/>
<path d="M491.863 65.5055C492.788 61.9952 493.969 58.2899 495.407 54.3896C496.846 50.4893 498.387 46.5402 500.03 42.5424C501.777 38.5446 503.472 34.7906 505.115 31.2803H519.138C518.213 35.0831 517.237 39.1296 516.21 43.42C515.285 47.6128 514.412 51.7569 513.59 55.8522C512.768 59.9475 512.101 63.7016 511.587 67.1144H492.942L491.863 65.5055Z" fill="#0E3B2A"/>
<path d="M439.596 130.577C424.135 130.577 412.963 126.848 406.081 119.388C399.198 111.88 395.756 100.838 395.756 86.2602C395.756 71.6828 399.198 60.7132 406.081 53.3513C412.963 45.9895 424.135 42.3086 439.596 42.3086C455.056 42.3086 466.228 45.9895 473.111 53.3513C479.994 60.7132 483.435 71.6828 483.435 86.2602C483.435 100.838 479.994 111.88 473.111 119.388C466.228 126.848 455.056 130.577 439.596 130.577ZM439.596 116.536C446.068 116.536 451.384 114.513 455.544 110.466C459.705 106.371 461.785 98.3512 461.785 86.4065C461.785 74.413 459.705 66.393 455.544 62.3464C451.384 58.2999 446.068 56.2766 439.596 56.2766C433.124 56.2766 427.808 58.2999 423.647 62.3464C419.487 66.393 417.406 74.413 417.406 86.4065C417.406 98.3512 419.487 106.371 423.647 110.466C427.808 114.513 433.124 116.536 439.596 116.536Z" fill="#0E3B2A"/>
<path d="M306.374 129.954V31.1924H327.461V75.0863L363.152 31.1924L390.442 31.1924L350.131 80.6461L390.665 129.954H363.375L336.178 96.8247C333.249 93.2563 327.461 95.3278 327.461 99.9446V129.954H306.374Z" fill="#0E3B2A"/>
<path d="M600.389 215.128V172.519H607.491V215.128H600.389ZM603.94 163.473C602.531 163.473 601.347 163.022 600.389 162.12C599.488 161.162 599.037 159.978 599.037 158.569C599.037 157.16 599.488 156.033 600.389 155.188C601.347 154.286 602.531 153.835 603.94 153.835C605.293 153.835 606.448 154.286 607.406 155.188C608.364 156.033 608.843 157.16 608.843 158.569C608.843 159.978 608.364 161.162 607.406 162.12C606.448 163.022 605.293 163.473 603.94 163.473Z" fill="#0E3B2A"/>
<path d="M573.34 216.143C569.789 216.143 566.689 215.551 564.04 214.368C561.447 213.184 559.362 211.549 557.784 209.464C556.262 207.322 555.332 204.814 554.994 201.94H562.265C562.547 203.405 563.138 204.758 564.04 205.998C564.942 207.238 566.154 208.252 567.675 209.041C569.253 209.774 571.17 210.14 573.424 210.14C575.397 210.14 577.031 209.859 578.328 209.295C579.624 208.675 580.582 207.858 581.202 206.843C581.878 205.829 582.217 204.73 582.217 203.546C582.217 201.799 581.794 200.475 580.948 199.573C580.159 198.671 578.976 197.966 577.398 197.459C575.82 196.896 573.903 196.417 571.649 196.022C569.789 195.684 567.957 195.233 566.154 194.669C564.35 194.106 562.744 193.373 561.335 192.471C559.926 191.513 558.799 190.358 557.953 189.005C557.164 187.652 556.769 185.99 556.769 184.017C556.769 181.594 557.389 179.452 558.629 177.592C559.869 175.676 561.645 174.182 563.956 173.111C566.323 172.04 569.056 171.505 572.156 171.505C576.721 171.505 580.413 172.604 583.231 174.802C586.049 177 587.712 180.184 588.219 184.355H581.202C580.92 182.214 579.99 180.551 578.412 179.367C576.89 178.127 574.777 177.507 572.072 177.507C569.423 177.507 567.394 178.043 565.985 179.114C564.632 180.185 563.956 181.594 563.956 183.341C563.956 184.468 564.322 185.482 565.055 186.384C565.844 187.23 566.971 187.962 568.436 188.582C569.958 189.202 571.818 189.71 574.016 190.104C576.834 190.611 579.399 191.288 581.709 192.133C584.02 192.978 585.88 194.247 587.289 195.937C588.754 197.572 589.487 199.911 589.487 202.954C589.487 205.603 588.811 207.914 587.458 209.887C586.162 211.859 584.302 213.409 581.878 214.537C579.455 215.607 576.609 216.143 573.34 216.143Z" fill="#0E3B2A"/>
<path d="M525.156 216.143C521.718 216.143 518.843 215.551 516.532 214.368C514.222 213.128 512.503 211.521 511.375 209.549C510.248 207.52 509.685 205.322 509.685 202.954C509.685 200.08 510.417 197.656 511.883 195.684C513.404 193.655 515.518 192.133 518.223 191.119C520.985 190.048 524.226 189.512 527.946 189.512H539.19C539.19 186.863 538.767 184.665 537.922 182.918C537.132 181.114 535.949 179.762 534.371 178.86C532.849 177.958 530.933 177.507 528.622 177.507C525.917 177.507 523.578 178.184 521.605 179.536C519.632 180.889 518.421 182.89 517.97 185.539H510.699C511.037 182.495 512.052 179.959 513.743 177.93C515.49 175.845 517.688 174.267 520.337 173.196C522.986 172.068 525.748 171.505 528.622 171.505C532.567 171.505 535.836 172.238 538.429 173.703C541.078 175.112 543.05 177.113 544.347 179.705C545.643 182.242 546.291 185.257 546.291 188.751V215.128H539.951L539.528 207.604C538.964 208.788 538.231 209.915 537.33 210.986C536.484 212 535.47 212.902 534.286 213.691C533.103 214.424 531.75 215.016 530.228 215.467C528.763 215.917 527.072 216.143 525.156 216.143ZM526.255 210.14C528.227 210.14 530.003 209.746 531.581 208.957C533.215 208.111 534.596 206.984 535.723 205.575C536.851 204.11 537.696 202.504 538.26 200.756C538.88 199.009 539.19 197.177 539.19 195.261V195.007H528.537C525.776 195.007 523.549 195.346 521.859 196.022C520.168 196.642 518.956 197.544 518.223 198.727C517.491 199.855 517.124 201.151 517.124 202.616C517.124 204.138 517.462 205.462 518.139 206.59C518.871 207.717 519.914 208.591 521.267 209.21C522.676 209.83 524.338 210.14 526.255 210.14Z" fill="#0E3B2A"/>
<path d="M462.663 215.127V154.257H469.765V179.704C471.174 177.168 473.146 175.167 475.683 173.701C478.275 172.236 481.093 171.503 484.137 171.503C487.406 171.503 490.252 172.18 492.675 173.532C495.099 174.829 496.959 176.829 498.255 179.535C499.551 182.24 500.2 185.65 500.2 189.764V215.127H493.183V190.525C493.183 186.242 492.281 183.029 490.477 180.887C488.674 178.689 486.053 177.59 482.615 177.59C480.191 177.59 477.993 178.182 476.021 179.366C474.104 180.549 472.583 182.24 471.455 184.438C470.328 186.636 469.765 189.342 469.765 192.554V215.127H462.663Z" fill="#0E3B2A"/>
<path d="M443.029 215.128V172.519H450.131V215.128H443.029ZM446.58 163.473C445.171 163.473 443.988 163.022 443.029 162.12C442.128 161.162 441.677 159.978 441.677 158.569C441.677 157.16 442.128 156.033 443.029 155.188C443.988 154.286 445.171 153.835 446.58 153.835C447.933 153.835 449.088 154.286 450.046 155.188C451.005 156.033 451.484 157.16 451.484 158.569C451.484 159.978 451.005 161.162 450.046 162.12C449.088 163.022 447.933 163.473 446.58 163.473Z" fill="#0E3B2A"/>
<path d="M400.026 233.729L410.425 210.395H407.973L391.234 172.521H398.927L412.792 205.069L427.333 172.521H434.688L407.466 233.729H400.026Z" fill="#0E3B2A"/>
<path d="M367.669 216.143C363.724 216.143 360.173 215.241 357.017 213.438C353.86 211.578 351.38 208.985 349.577 205.66C347.773 202.278 346.872 198.361 346.872 193.908C346.872 189.343 347.773 185.398 349.577 182.073C351.437 178.691 353.945 176.098 357.101 174.295C360.314 172.435 363.893 171.505 367.838 171.505C371.896 171.505 375.475 172.435 378.575 174.295C381.731 176.098 384.211 178.691 386.014 182.073C387.874 185.398 388.804 189.315 388.804 193.824C388.804 198.333 387.874 202.278 386.014 205.66C384.154 208.985 381.646 211.578 378.49 213.438C375.334 215.241 371.727 216.143 367.669 216.143ZM367.753 210.056C370.177 210.056 372.431 209.464 374.517 208.281C376.602 207.041 378.293 205.209 379.589 202.785C380.886 200.362 381.534 197.375 381.534 193.824C381.534 190.217 380.886 187.23 379.589 184.862C378.349 182.439 376.687 180.635 374.601 179.452C372.572 178.212 370.318 177.592 367.838 177.592C365.471 177.592 363.216 178.212 361.075 179.452C358.989 180.635 357.298 182.439 356.002 184.862C354.762 187.23 354.142 190.217 354.142 193.824C354.142 197.375 354.762 200.362 356.002 202.785C357.298 205.209 358.961 207.041 360.99 208.281C363.075 209.464 365.33 210.056 367.753 210.056Z" fill="#0E3B2A"/>
<path d="M306.304 215.127V155.948H313.405V209.463H340.966V215.127H306.304Z" fill="#0E3B2A"/>
<path fill-rule="evenodd" clip-rule="evenodd" d="M79.8909 123.523C79.8909 164.302 103.488 217.346 141.758 244.964C52.1671 256.709 -3.50401e-05 185.425 -3.50401e-05 123.523C-3.50401e-05 113.414 1.18107 104.217 2.98101 96.0695C9.33734 67.2986 25.2926 32.2122 0.143395 16.8602C0.143395 16.8602 8.73906 0.211914 38.9494 0.211914C69.1598 0.211914 92.5738 29.3551 92.5738 53.2675C92.5738 77.1798 79.8909 82.7435 79.8909 123.523Z" fill="#0E3B2A"/>
<path fill-rule="evenodd" clip-rule="evenodd" d="M221.331 153.41C221.331 164.649 215.874 179.859 193.008 185.989C170.142 192.119 148.459 205.262 143.027 230.114C125.391 213.078 118.337 188.599 126.203 166.06C134.778 140.073 156.007 126.979 174.702 124.122C210.573 119.466 220.661 138.619 221.331 153.41Z" fill="#0E3B2A"/>
<path fill-rule="evenodd" clip-rule="evenodd" d="M246.304 36.8592C246.304 23.4332 242.411 10.9167 235.693 0.376142C232.384 0.126758 229.042 2.94374e-10 225.67 2.80567e-10C157.277 0 126.908 35.5541 116.785 49.4865C106.662 63.4189 90.8251 89.4496 92.3325 130.216C92.9288 146.343 99.3609 169.834 110.895 188.317C109.449 142.322 142.745 116.798 187.59 104.203C210.994 97.6302 224.787 88.8004 233.721 76.2653C241.644 65.15 246.304 51.5488 246.304 36.8592Z" fill="#0E3B2A"/>
</svg>
