<svg width="494" height="259" viewBox="0 0 494 259" fill="none" xmlns="http://www.w3.org/2000/svg">
<rect y="258.341" width="258.341" height="493.718" rx="8.61136" transform="rotate(-90 0 258.341)" fill="white"/>
<path d="M370.044 106.185L361.49 115.315L370.288 131.188H363.581L358.014 120.874C357.583 120.074 356.522 119.881 355.836 120.477L353.119 122.84V131.188H346.9L346.9 102.728H353.119L353.119 116.262L362.737 106.185H370.044Z" fill="#0E3B2A"/>
<path d="M327.343 131.441C325.833 131.441 324.485 131.322 323.301 131.083C322.116 130.83 321.095 130.415 320.236 129.839C319.392 129.263 318.748 128.483 318.304 127.499C317.859 126.501 317.637 125.257 317.637 123.768C317.637 122.348 317.852 121.16 318.281 120.205C318.711 119.249 319.333 118.49 320.147 117.928C320.976 117.352 321.99 116.937 323.19 116.684C324.389 116.431 325.751 116.305 327.277 116.305H334.578C335.207 116.305 335.717 115.795 335.717 115.166C335.717 113.901 335.48 112.889 335.006 112.13C334.547 111.371 333.888 110.823 333.029 110.486C332.17 110.135 331.141 109.959 329.942 109.959C328.965 109.959 328.069 110.114 327.254 110.423C326.44 110.732 325.848 111.114 325.234 111.881C324.62 112.647 324.019 114.108 324.019 114.108L317.926 113.163C318.207 111.828 318.711 110.704 319.436 109.79C320.177 108.863 321.08 108.125 322.146 107.577C323.212 107.014 324.404 106.607 325.722 106.354C327.04 106.087 328.439 105.953 329.92 105.953C332.526 105.953 334.725 106.27 336.516 106.902C338.308 107.535 339.663 108.546 340.581 109.938C341.514 111.315 341.98 113.156 341.98 115.461V131.188H336.783L336.25 128.195C336.028 128.574 335.665 128.954 335.161 129.333C334.658 129.699 334.021 130.043 333.251 130.366C332.496 130.689 331.622 130.949 330.63 131.146C329.638 131.343 328.543 131.441 327.343 131.441ZM328.742 127.604C329.897 127.604 330.941 127.478 331.874 127.225C332.807 126.958 333.592 126.614 334.229 126.192C335.297 125.501 335.628 124.191 335.628 122.919V119.572H328.742C328.061 119.572 327.425 119.628 326.832 119.741C326.255 119.839 325.751 120.029 325.322 120.31C324.893 120.591 324.56 120.999 324.323 121.533C324.086 122.053 323.967 122.728 323.967 123.557C323.967 124.386 324.086 125.068 324.323 125.602C324.56 126.122 324.893 126.529 325.322 126.824C325.766 127.106 326.277 127.309 326.855 127.436C327.432 127.548 328.061 127.604 328.742 127.604Z" fill="#0E3B2A"/>
<path d="M276.561 106.206V131.188H282.802V115.785C282.937 114.109 283.381 112.792 284.134 111.835C285.067 110.669 286.274 110.085 287.755 110.085C289.191 110.085 290.227 110.612 290.864 111.667C291.501 112.721 291.819 114.421 291.819 116.768V131.188H298.038V116.305C298.038 116.244 298.038 116.185 298.037 116.125C298.138 114.286 298.59 112.856 299.393 111.835C300.326 110.669 301.525 110.085 302.991 110.085C304.442 110.085 305.471 110.612 306.078 111.667C306.686 112.721 306.989 114.421 306.989 116.768V131.188H313.23V116.305C313.23 113.465 312.682 111.041 311.587 109.031C310.491 107.007 308.322 105.995 305.079 105.995C302.236 105.995 299.793 107.007 297.749 109.031C297.423 109.354 297.123 109.681 296.849 110.012C296.698 109.667 296.531 109.333 296.35 109.01C295.24 107 293.063 105.995 289.82 105.995C287.511 105.995 285.42 106.7 283.621 108.034C283.028 108.473 282.138 108.266 281.889 107.571L281.402 106.206H276.561Z" fill="#0E3B2A"/>
<path d="M265.229 112.62C265.496 111.608 265.836 110.54 266.251 109.415C266.665 108.291 267.11 107.153 267.583 106C268.087 104.848 268.575 103.765 269.049 102.753H273.092C272.825 103.85 272.544 105.016 272.248 106.253C271.981 107.462 271.729 108.656 271.492 109.837C271.255 111.018 271.063 112.1 270.915 113.084H265.54L265.229 112.62Z" fill="#0E3B2A"/>
<path d="M250.161 131.378C245.704 131.378 242.484 130.303 240.5 128.153C238.516 125.988 237.523 122.805 237.523 118.603C237.523 114.4 238.516 111.238 240.5 109.116C242.484 106.993 245.704 105.932 250.161 105.932C254.618 105.932 257.839 106.993 259.823 109.116C261.807 111.238 262.799 114.4 262.799 118.603C262.799 122.805 261.807 125.988 259.823 128.153C257.839 130.303 254.618 131.378 250.161 131.378ZM250.161 127.33C252.027 127.33 253.559 126.747 254.759 125.581C255.958 124.4 256.558 122.088 256.558 118.645C256.558 115.187 255.958 112.875 254.759 111.709C253.559 110.542 252.027 109.959 250.161 109.959C248.296 109.959 246.763 110.542 245.564 111.709C244.364 112.875 243.765 115.187 243.765 118.645C243.765 122.088 244.364 124.4 245.564 125.581C246.763 126.747 248.296 127.33 250.161 127.33Z" fill="#0E3B2A"/>
<path d="M211.757 131.198V102.728H217.836V115.381L228.124 102.728L235.992 102.728L224.371 116.984L236.056 131.198H228.189L220.349 121.648C219.504 120.619 217.836 121.217 217.836 122.548V131.198H211.757Z" fill="#0E3B2A"/>
<path d="M296.515 155.752V143.469H298.562V155.752H296.515ZM297.539 140.861C297.132 140.861 296.791 140.731 296.515 140.472C296.255 140.195 296.125 139.854 296.125 139.448C296.125 139.042 296.255 138.717 296.515 138.473C296.791 138.213 297.132 138.083 297.539 138.083C297.928 138.083 298.262 138.213 298.538 138.473C298.814 138.717 298.952 139.042 298.952 139.448C298.952 139.854 298.814 140.195 298.538 140.472C298.262 140.731 297.928 140.861 297.539 140.861Z" fill="#0E3B2A"/>
<path d="M288.717 156.045C287.693 156.045 286.8 155.874 286.036 155.533C285.289 155.192 284.687 154.721 284.232 154.119C283.794 153.502 283.526 152.779 283.428 151.95H285.524C285.605 152.373 285.776 152.763 286.036 153.12C286.296 153.478 286.645 153.77 287.084 153.998C287.539 154.209 288.091 154.314 288.741 154.314C289.31 154.314 289.781 154.233 290.155 154.071C290.528 153.892 290.805 153.656 290.983 153.364C291.178 153.071 291.276 152.755 291.276 152.413C291.276 151.91 291.154 151.528 290.91 151.268C290.683 151.008 290.342 150.805 289.887 150.659C289.432 150.496 288.879 150.358 288.229 150.244C287.693 150.147 287.165 150.017 286.645 149.854C286.125 149.692 285.662 149.481 285.256 149.221C284.85 148.945 284.525 148.611 284.281 148.222C284.054 147.832 283.94 147.352 283.94 146.784C283.94 146.085 284.119 145.468 284.476 144.931C284.834 144.379 285.345 143.948 286.012 143.64C286.694 143.331 287.482 143.177 288.376 143.177C289.692 143.177 290.756 143.493 291.568 144.127C292.381 144.761 292.86 145.679 293.006 146.881H290.983C290.902 146.264 290.634 145.784 290.179 145.443C289.74 145.086 289.131 144.907 288.351 144.907C287.588 144.907 287.003 145.061 286.596 145.37C286.207 145.679 286.012 146.085 286.012 146.589C286.012 146.914 286.117 147.206 286.328 147.466C286.556 147.71 286.881 147.921 287.303 148.1C287.742 148.278 288.278 148.425 288.912 148.538C289.724 148.685 290.463 148.88 291.13 149.123C291.796 149.367 292.332 149.733 292.738 150.22C293.161 150.691 293.372 151.365 293.372 152.243C293.372 153.006 293.177 153.673 292.787 154.241C292.413 154.81 291.877 155.257 291.178 155.582C290.48 155.89 289.659 156.045 288.717 156.045Z" fill="#0E3B2A"/>
<path d="M274.827 156.045C273.836 156.045 273.007 155.874 272.341 155.533C271.675 155.175 271.179 154.712 270.854 154.144C270.529 153.559 270.367 152.925 270.367 152.243C270.367 151.414 270.578 150.716 271 150.147C271.439 149.562 272.048 149.123 272.828 148.831C273.624 148.522 274.559 148.368 275.631 148.368H278.872C278.872 147.604 278.75 146.97 278.507 146.467C278.279 145.947 277.938 145.557 277.483 145.297C277.044 145.037 276.492 144.907 275.826 144.907C275.046 144.907 274.372 145.102 273.803 145.492C273.234 145.882 272.885 146.459 272.755 147.222H270.659C270.757 146.345 271.049 145.614 271.537 145.029C272.04 144.428 272.674 143.973 273.437 143.664C274.201 143.339 274.997 143.177 275.826 143.177C276.963 143.177 277.906 143.388 278.653 143.81C279.417 144.216 279.985 144.793 280.359 145.541C280.733 146.272 280.919 147.141 280.919 148.148V155.752H279.092L278.97 153.583C278.807 153.924 278.596 154.249 278.336 154.558C278.092 154.851 277.8 155.11 277.459 155.338C277.118 155.549 276.728 155.72 276.289 155.85C275.867 155.98 275.379 156.045 274.827 156.045ZM275.143 154.314C275.712 154.314 276.224 154.201 276.679 153.973C277.15 153.729 277.548 153.404 277.873 152.998C278.198 152.576 278.442 152.113 278.604 151.609C278.783 151.105 278.872 150.577 278.872 150.025V149.952H275.802C275.005 149.952 274.364 150.049 273.876 150.244C273.389 150.423 273.039 150.683 272.828 151.024C272.617 151.349 272.511 151.723 272.511 152.145C272.511 152.584 272.609 152.966 272.804 153.291C273.015 153.616 273.316 153.868 273.706 154.046C274.112 154.225 274.591 154.314 275.143 154.314Z" fill="#0E3B2A"/>
<path d="M256.812 155.752V138.205H258.859V145.541C259.265 144.809 259.834 144.233 260.565 143.81C261.312 143.388 262.124 143.177 263.002 143.177C263.944 143.177 264.765 143.372 265.463 143.762C266.162 144.135 266.698 144.712 267.072 145.492C267.446 146.272 267.632 147.255 267.632 148.441V155.752H265.61V148.66C265.61 147.425 265.35 146.499 264.83 145.882C264.31 145.248 263.554 144.931 262.563 144.931C261.865 144.931 261.231 145.102 260.662 145.443C260.11 145.784 259.671 146.272 259.346 146.905C259.021 147.539 258.859 148.319 258.859 149.245V155.752H256.812Z" fill="#0E3B2A"/>
<path d="M251.152 155.752V143.469H253.199V155.752H251.152ZM252.175 140.861C251.769 140.861 251.428 140.731 251.152 140.472C250.892 140.195 250.762 139.854 250.762 139.448C250.762 139.042 250.892 138.717 251.152 138.473C251.428 138.213 251.769 138.083 252.175 138.083C252.565 138.083 252.898 138.213 253.174 138.473C253.451 138.717 253.589 139.042 253.589 139.448C253.589 139.854 253.451 140.195 253.174 140.472C252.898 140.731 252.565 140.861 252.175 140.861Z" fill="#0E3B2A"/>
<path d="M238.755 161.114L241.753 154.388H241.046L236.22 143.469H238.438L242.435 152.852L246.627 143.469H248.747L240.9 161.114H238.755Z" fill="#0E3B2A"/>
<path d="M229.427 156.045C228.29 156.045 227.266 155.785 226.356 155.265C225.446 154.729 224.731 153.981 224.212 153.023C223.692 152.048 223.432 150.919 223.432 149.635C223.432 148.319 223.692 147.182 224.212 146.223C224.748 145.248 225.471 144.501 226.381 143.981C227.307 143.445 228.338 143.177 229.476 143.177C230.646 143.177 231.677 143.445 232.571 143.981C233.481 144.501 234.196 145.248 234.716 146.223C235.252 147.182 235.52 148.311 235.52 149.611C235.52 150.91 235.252 152.048 234.716 153.023C234.179 153.981 233.456 154.729 232.547 155.265C231.637 155.785 230.597 156.045 229.427 156.045ZM229.451 154.29C230.15 154.29 230.8 154.119 231.401 153.778C232.002 153.421 232.49 152.893 232.863 152.194C233.237 151.495 233.424 150.634 233.424 149.611C233.424 148.571 233.237 147.71 232.863 147.027C232.506 146.329 232.027 145.809 231.425 145.468C230.841 145.11 230.191 144.931 229.476 144.931C228.793 144.931 228.143 145.11 227.526 145.468C226.925 145.809 226.437 146.329 226.064 147.027C225.706 147.71 225.528 148.571 225.528 149.611C225.528 150.634 225.706 151.495 226.064 152.194C226.437 152.893 226.917 153.421 227.502 153.778C228.103 154.119 228.753 154.29 229.451 154.29Z" fill="#0E3B2A"/>
<path d="M211.737 155.752V138.692H213.784V154.119H221.729V155.752H211.737Z" fill="#0E3B2A"/>
<path fill-rule="evenodd" clip-rule="evenodd" d="M146.361 129.356C146.361 141.061 153.135 156.287 164.12 164.215C138.404 167.586 123.429 147.124 123.429 129.356C123.429 126.454 123.768 123.814 124.285 121.475C126.109 113.217 130.689 103.145 123.47 98.7386C123.47 98.7386 125.938 93.9598 134.609 93.9598C143.281 93.9598 150.002 102.325 150.002 109.189C150.002 116.053 146.361 117.65 146.361 129.356Z" fill="#0E3B2A"/>
<path fill-rule="evenodd" clip-rule="evenodd" d="M186.961 137.935C186.961 141.161 185.395 145.527 178.831 147.286C172.268 149.046 166.044 152.819 164.485 159.952C159.422 155.062 157.397 148.036 159.655 141.566C162.117 134.106 168.211 130.348 173.577 129.528C183.873 128.191 186.769 133.689 186.961 137.935Z" fill="#2FBF84"/>
<path fill-rule="evenodd" clip-rule="evenodd" d="M194.13 104.479C194.13 100.625 193.013 97.0326 191.084 94.007C190.134 93.9354 189.175 93.899 188.207 93.899C168.575 93.899 159.858 104.105 156.952 108.104C154.046 112.103 149.5 119.575 149.933 131.277C150.104 135.906 151.951 142.649 155.261 147.955C154.846 134.752 164.404 127.425 177.276 123.81C183.994 121.923 187.954 119.389 190.518 115.791C192.792 112.6 194.13 108.696 194.13 104.479Z" fill="#0E3B2A"/>
</svg>
