<svg width="494" height="259" viewBox="0 0 494 259" fill="none" xmlns="http://www.w3.org/2000/svg">
<rect width="258.341" height="493.718" rx="8.61136" transform="matrix(-1.57652e-07 -1 -1 1.21196e-08 493.718 258.341)" fill="#2FBF84"/>
<path d="M369.958 117.357L360.804 127.127L370.22 144.115H363.041L357.084 133.076C356.623 132.221 355.487 132.014 354.754 132.652L351.846 135.18V144.115H345.19L345.19 113.657H351.846L351.846 128.141L362.138 117.357H369.958Z" fill="white"/>
<path d="M324.261 144.386C322.644 144.386 321.202 144.258 319.935 144.002C318.667 143.731 317.573 143.288 316.654 142.671C315.751 142.054 315.062 141.22 314.586 140.167C314.111 139.099 313.873 137.768 313.873 136.173C313.873 134.654 314.103 133.383 314.563 132.36C315.022 131.338 315.688 130.525 316.559 129.924C317.447 129.307 318.532 128.863 319.816 128.593C321.099 128.322 322.557 128.186 324.189 128.186H332.003C332.676 128.186 333.222 127.641 333.222 126.968C333.222 125.614 332.968 124.531 332.461 123.719C331.97 122.907 331.265 122.32 330.346 121.959C329.427 121.583 328.325 121.395 327.042 121.395C325.996 121.395 325.037 121.561 324.166 121.892C323.294 122.223 322.66 122.631 322.003 123.452C321.346 124.273 320.703 125.836 320.703 125.836L314.182 124.825C314.483 123.396 315.022 122.193 315.799 121.215C316.591 120.222 317.558 119.432 318.699 118.846C319.839 118.244 321.115 117.808 322.525 117.537C323.936 117.252 325.433 117.109 327.018 117.109C329.807 117.109 332.16 117.447 334.077 118.124C335.995 118.801 337.445 119.884 338.427 121.373C339.426 122.847 339.925 124.817 339.925 127.284V144.115H334.363L333.792 140.911C333.555 141.317 333.166 141.723 332.628 142.129C332.089 142.521 331.407 142.889 330.583 143.235C329.775 143.581 328.84 143.859 327.779 144.07C326.717 144.28 325.544 144.386 324.261 144.386ZM325.758 140.279C326.994 140.279 328.111 140.144 329.11 139.873C330.108 139.588 330.948 139.219 331.629 138.768C332.772 138.028 333.127 136.626 333.127 135.265V131.683H325.758C325.029 131.683 324.348 131.744 323.714 131.864C323.096 131.969 322.557 132.172 322.098 132.473C321.638 132.774 321.281 133.21 321.028 133.782C320.774 134.338 320.648 135.06 320.648 135.948C320.648 136.835 320.774 137.565 321.028 138.136C321.281 138.693 321.638 139.129 322.098 139.445C322.573 139.745 323.12 139.964 323.738 140.099C324.356 140.219 325.029 140.279 325.758 140.279Z" fill="white"/>
<path d="M269.913 117.379V144.115H276.593V127.63C276.737 125.836 277.213 124.427 278.019 123.403C279.017 122.155 280.309 121.531 281.893 121.531C283.43 121.531 284.54 122.095 285.221 123.223C285.902 124.351 286.243 126.171 286.243 128.683V144.115H292.899V128.186C292.899 128.122 292.898 128.058 292.898 127.994C293.005 126.026 293.489 124.496 294.348 123.403C295.347 122.155 296.63 121.531 298.199 121.531C299.752 121.531 300.853 122.095 301.503 123.223C302.153 124.351 302.478 126.171 302.478 128.683V144.115H309.157V128.186C309.157 125.148 308.571 122.553 307.398 120.402C306.225 118.237 303.904 117.154 300.434 117.154C297.391 117.154 294.776 118.237 292.59 120.402C292.241 120.748 291.92 121.098 291.626 121.452C291.464 121.083 291.286 120.726 291.092 120.38C289.904 118.229 287.574 117.154 284.104 117.154C281.633 117.154 279.394 117.907 277.469 119.335C276.834 119.805 275.882 119.584 275.616 118.84L275.095 117.379H269.913Z" fill="white"/>
<path d="M257.786 124.243C258.072 123.16 258.436 122.017 258.88 120.813C259.323 119.61 259.799 118.392 260.306 117.158C260.845 115.925 261.368 114.767 261.875 113.684H266.201C265.916 114.857 265.614 116.106 265.298 117.429C265.012 118.723 264.743 120.001 264.489 121.265C264.236 122.528 264.03 123.686 263.871 124.739H258.119L257.786 124.243Z" fill="white"/>
<path d="M241.661 144.318C236.891 144.318 233.445 143.167 231.321 140.866C229.198 138.55 228.136 135.143 228.136 130.646C228.136 126.148 229.198 122.764 231.321 120.493C233.445 118.222 236.891 117.086 241.661 117.086C246.431 117.086 249.877 118.222 252.001 120.493C254.124 122.764 255.186 126.148 255.186 130.646C255.186 135.143 254.124 138.55 252.001 140.866C249.877 143.167 246.431 144.318 241.661 144.318ZM241.661 139.986C243.658 139.986 245.298 139.362 246.581 138.114C247.865 136.85 248.507 134.376 248.507 130.691C248.507 126.991 247.865 124.516 246.581 123.268C245.298 122.02 243.658 121.395 241.661 121.395C239.664 121.395 238.024 122.02 236.741 123.268C235.457 124.516 234.815 126.991 234.815 130.691C234.815 134.376 235.457 136.85 236.741 138.114C238.024 139.362 239.664 139.986 241.661 139.986Z" fill="white"/>
<path d="M200.561 144.126V113.657H207.066V127.198L218.077 113.657L226.497 113.657L214.06 128.914L226.566 144.126H218.146L209.756 133.905C208.852 132.804 207.066 133.443 207.066 134.868V144.126H200.561Z" fill="white"/>
<path fill-rule="evenodd" clip-rule="evenodd" d="M143.307 129.128C143.307 139.379 149.239 152.714 158.86 159.656C136.338 162.609 123.224 144.689 123.224 129.128C123.224 126.586 123.521 124.274 123.973 122.226C125.571 114.994 129.582 106.173 123.26 102.314C123.26 102.314 125.421 98.1289 133.015 98.1289C140.61 98.1289 146.496 105.455 146.496 111.466C146.496 117.478 143.307 118.876 143.307 129.128Z" fill="white"/>
<path fill-rule="evenodd" clip-rule="evenodd" d="M178.864 136.641C178.864 139.466 177.492 143.29 171.743 144.831C165.995 146.372 160.545 149.676 159.179 155.923C154.746 151.64 152.972 145.487 154.95 139.821C157.105 133.288 162.442 129.996 167.141 129.278C176.159 128.108 178.695 132.922 178.864 136.641Z" fill="white"/>
<path fill-rule="evenodd" clip-rule="evenodd" d="M185.141 107.341C185.141 103.966 184.163 100.82 182.474 98.1701C181.642 98.1074 180.802 98.0756 179.954 98.0756C162.761 98.0756 155.127 107.013 152.582 110.516C150.037 114.018 146.056 120.562 146.435 130.81C146.585 134.864 148.202 140.77 151.101 145.416C150.738 133.853 159.108 127.437 170.381 124.271C176.265 122.619 179.732 120.399 181.978 117.248C183.97 114.453 185.141 111.034 185.141 107.341Z" fill="white"/>
</svg>
